{
  "accessors": [
    {
      "bufferView": 2,
      "componentType": 5126,
      "count": 1232,
      "max": [
        220.3415985107422,
        438.8489990234375,
        114.0779037475586
      ],
      "min": [
        5.356596946716309,
        10.45610523223877,
        0.008379247970879078
      ],
      "type": "VEC3"
    },
    {
      "bufferView": 2,
      "byteOffset": 14784,
      "componentType": 5126,
      "count": 1232,
      "max": [
        0.9999964833259583,
        0.9999964237213135,
        0.9999991059303284
      ],
      "min": [
        -0.9999967217445374,
        -0.9999958276748657,
        -0.9999992251396179
      ],
      "type": "VEC3"
    },
    {
      "bufferView": 1,
      "componentType": 5126,
      "count": 1232,
      "max": [
        0.9990000128746033,
        0.8109999895095825
      ],
      "min": [
        0.8139778971672058,
        0.3760155141353607
      ],
      "type": "VEC2"
    },
    {
      "bufferView": 1,
      "byteOffset": 9856,
      "componentType": 5126,
      "count": 1232,
      "max": [
        0.9990000128746033,
        0.8109999895095825
      ],
      "min": [
        0.8139778971672058,
        0.3760155141353607
      ],
      "type": "VEC2"
    },
    {
      "bufferView": 0,
      "componentType": 5125,
      "count": 1500,
      "type": "SCALAR"
    },
    {
      "bufferView": 2,
      "byteOffset": 29568,
      "componentType": 5126,
      "count": 52480,
      "max": [
        223.9897003173828,
        439.18798828125,
        114.4136962890625
      ],
      "min": [
        -1.277299165725708,
        6.858098030090332,
        3.466143971309066e-05
      ],
      "type": "VEC3"
    },
    {
      "bufferView": 2,
      "byteOffset": 659328,
      "componentType": 5126,
      "count": 52480,
      "max": [
        1.0,
        0.9999992847442627,
        1.0
      ],
      "min": [
        -1.0,
        -0.9999988079071045,
        -1.0
      ],
      "type": "VEC3"
    },
    {
      "bufferView": 1,
      "byteOffset": 19712,
      "componentType": 5126,
      "count": 52480,
      "max": [
        19.36651039123535,
        27.994619369506836
      ],
      "min": [
        -19.367069244384766,
        -26.4938907623291
      ],
      "type": "VEC2"
    },
    {
      "bufferView": 1,
      "byteOffset": 439552,
      "componentType": 5126,
      "count": 52480,
      "max": [
        19.36651039123535,
        27.994619369506836
      ],
      "min": [
        -19.367069244384766,
        -26.4938907623291
      ],
      "type": "VEC2"
    },
    {
      "bufferView": 0,
      "byteOffset": 6000,
      "componentType": 5125,
      "count": 60234,
      "type": "SCALAR"
    },
    {
      "bufferView": 2,
      "byteOffset": 1289088,
      "componentType": 5126,
      "count": 13500,
      "max": [
        223.9897003173828,
        439.18798828125,
        114.4136962890625
      ],
      "min": [
        -1.277299165725708,
        6.858098030090332,
        3.466143971309066e-05
      ],
      "type": "VEC3"
    },
    {
      "bufferView": 0,
      "byteOffset": 246936,
      "componentType": 5125,
      "count": 58508,
      "type": "SCALAR"
    },
    {
      "bufferView": 2,
      "byteOffset": 1451088,
      "componentType": 5126,
      "count": 8,
      "max": [
        218.9490966796875,
        412.3431091308594,
        80.33625793457031
      ],
      "min": [
        39.959739685058594,
        10.30449390411377,
        0.021623719483613968
      ],
      "type": "VEC3"
    },
    {
      "bufferView": 0,
      "byteOffset": 480968,
      "componentType": 5125,
      "count": 8,
      "type": "SCALAR"
    },
    {
      "bufferView": 2,
      "byteOffset": 1451184,
      "componentType": 5126,
      "count": 674,
      "max": [
        220.67819213867188,
        439.18798828125,
        0.6298848986625671
      ],
      "min": [
        5.364500999450684,
        10.27299976348877,
        3.466143971309066e-05
      ],
      "type": "VEC3"
    },
    {
      "bufferView": 2,
      "byteOffset": 1459272,
      "componentType": 5126,
      "count": 674,
      "max": [
        -0.00013850629329681396,
        -0.0013038159813731909,
        0.9999991059303284
      ],
      "min": [
        -0.00026247251662425697,
        -0.00142395100556314,
        0.9999989867210388
      ],
      "type": "VEC3"
    },
    {
      "bufferView": 1,
      "byteOffset": 859392,
      "componentType": 5126,
      "count": 674,
      "max": [
        0.9390000104904175,
        0.9390000104904175
      ],
      "min": [
        0.0009999870089814067,
        0.0029478699434548616
      ],
      "type": "VEC2"
    },
    {
      "bufferView": 0,
      "byteOffset": 481000,
      "componentType": 5125,
      "count": 762,
      "type": "SCALAR"
    },
    {
      "bufferView": 2,
      "byteOffset": 1467360,
      "componentType": 5126,
      "count": 3319,
      "max": [
        219.7659912109375,
        437.5577087402344,
        86.26216888427734
      ],
      "min": [
        6.196402549743652,
        48.91670608520508,
        0.24298299849033356
      ],
      "type": "VEC3"
    },
    {
      "bufferView": 2,
      "byteOffset": 1507188,
      "componentType": 5126,
      "count": 3319,
      "max": [
        0.9999969005584717,
        0.9999957084655762,
        0.9999991059303284
      ],
      "min": [
        -0.9999967217445374,
        -0.9999957084655762,
        -0.9992309212684631
      ],
      "type": "VEC3"
    },
    {
      "bufferView": 1,
      "byteOffset": 864784,
      "componentType": 5126,
      "count": 3319,
      "max": [
        122.72920227050781,
        89.84976196289063
      ],
      "min": [
        -122.72730255126953,
        -88.13297271728516
      ],
      "type": "VEC2"
    },
    {
      "bufferView": 0,
      "byteOffset": 484048,
      "componentType": 5125,
      "count": 3879,
      "type": "SCALAR"
    },
    {
      "bufferView": 2,
      "byteOffset": 1547016,
      "componentType": 5126,
      "count": 29818,
      "max": [
        212.27000427246094,
        438.6867980957031,
        35.14379119873047
      ],
      "min": [
        8.799498558044434,
        35.92850112915039,
        0.06731977313756943
      ],
      "type": "VEC3"
    },
    {
      "bufferView": 2,
      "byteOffset": 1904832,
      "componentType": 5126,
      "count": 29818,
      "max": [
        0.9999989867210388,
        0.9999957084655762,
        0.9999991059303284
      ],
      "min": [
        -0.9999985098838806,
        -0.9999986290931702,
        -1.0
      ],
      "type": "VEC3"
    },
    {
      "bufferView": 1,
      "byteOffset": 891336,
      "componentType": 5126,
      "count": 29818,
      "max": [
        189.110595703125,
        195.7216033935547
      ],
      "min": [
        -190.02639770507813,
        -170.27569580078125
      ],
      "type": "VEC2"
    },
    {
      "bufferView": 0,
      "byteOffset": 499564,
      "componentType": 5125,
      "count": 32652,
      "type": "SCALAR"
    },
    {
      "bufferView": 2,
      "byteOffset": 2262648,
      "componentType": 5126,
      "count": 2160,
      "max": [
        219.95819091796875,
        438.6524963378906,
        37.510738372802734
      ],
      "min": [
        -1.2619030475616455,
        10.236393928527832,
        0.00850134901702404
      ],
      "type": "VEC3"
    },
    {
      "bufferView": 2,
      "byteOffset": 2288568,
      "componentType": 5126,
      "count": 2160,
      "max": [
        0.999996542930603,
        0.9999963045120239,
        0.9999997019767761
      ],
      "min": [
        -0.9999964237213135,
        -0.9999955892562866,
        -0.9999991059303284
      ],
      "type": "VEC3"
    },
    {
      "bufferView": 1,
      "byteOffset": 1129880,
      "componentType": 5126,
      "count": 2160,
      "max": [
        111.32250213623047,
        119.94719696044922
      ],
      "min": [
        -113.65440368652344,
        -170.514404296875
      ],
      "type": "VEC2"
    },
    {
      "bufferView": 1,
      "byteOffset": 1147160,
      "componentType": 5126,
      "count": 2160,
      "max": [
        111.32250213623047,
        119.94719696044922
      ],
      "min": [
        -113.65440368652344,
        -170.514404296875
      ],
      "type": "VEC2"
    },
    {
      "bufferView": 0,
      "byteOffset": 630172,
      "componentType": 5125,
      "count": 2640,
      "type": "SCALAR"
    },
    {
      "bufferView": 2,
      "byteOffset": 2314488,
      "componentType": 5126,
      "count": 5440,
      "max": [
        223.9897003173828,
        439.18719482421875,
        114.41300201416016
      ],
      "min": [
        -0.9350979328155518,
        6.858098030090332,
        0.00374288996681571
      ],
      "type": "VEC3"
    },
    {
      "bufferView": 2,
      "byteOffset": 2379768,
      "componentType": 5126,
      "count": 5440,
      "max": [
        0.9999983906745911,
        0.9999985098838806,
        0.9999995827674866
      ],
      "min": [
        -0.9999983906745911,
        -0.9999979138374329,
        -0.9999992847442627
      ],
      "type": "VEC3"
    },
    {
      "bufferView": 1,
      "byteOffset": 1164440,
      "componentType": 5126,
      "count": 5440,
      "max": [
        214.83909606933594,
        221.5592041015625
      ],
      "min": [
        -214.83160400390625,
        -210.16189575195313
      ],
      "type": "VEC2"
    },
    {
      "bufferView": 0,
      "byteOffset": 640732,
      "componentType": 5125,
      "count": 6585,
      "type": "SCALAR"
    },
    {
      "bufferView": 2,
      "byteOffset": 2445048,
      "componentType": 5126,
      "count": 4096,
      "max": [
        220.6562042236328,
        439.03399658203125,
        114.41339874267578
      ],
      "min": [
        -1.277299165725708,
        10.117497444152832,
        3.549983024597168
      ],
      "type": "VEC3"
    },
    {
      "bufferView": 2,
      "byteOffset": 2494200,
      "componentType": 5126,
      "count": 4096,
      "max": [
        0.9999979734420776,
        0.9999969005584717,
        0.9999991059303284
      ],
      "min": [
        -0.999998927116394,
        -0.9999961256980896,
        -0.9999997019767761
      ],
      "type": "VEC3"
    },
    {
      "bufferView": 1,
      "byteOffset": 1207960,
      "componentType": 5126,
      "count": 4096,
      "max": [
        1.0020010471343994,
        0.9739999771118164
      ],
      "min": [
        0.0015315660275518894,
        7.90329721667149e-08
      ],
      "type": "VEC2"
    },
    {
      "bufferView": 0,
      "byteOffset": 667072,
      "componentType": 5125,
      "count": 5400,
      "type": "SCALAR"
    },
    {
      "bufferView": 2,
      "byteOffset": 2543352,
      "componentType": 5126,
      "count": 5434,
      "max": [
        220.6790008544922,
        439.1867980957031,
        114.4136962890625
      ],
      "min": [
        5.344000816345215,
        6.858098030090332,
        0.00374288996681571
      ],
      "type": "VEC3"
    },
    {
      "bufferView": 2,
      "byteOffset": 2608560,
      "componentType": 5126,
      "count": 5434,
      "max": [
        1.0,
        0.9999988079071045,
        1.0
      ],
      "min": [
        -1.0,
        -0.9999992847442627,
        -1.0
      ],
      "type": "VEC3"
    },
    {
      "bufferView": 1,
      "byteOffset": 1240728,
      "componentType": 5126,
      "count": 5434,
      "max": [
        225.5518035888672,
        221.10189819335938
      ],
      "min": [
        -220.69349670410156,
        -218.50079345703125
      ],
      "type": "VEC2"
    },
    {
      "bufferView": 0,
      "byteOffset": 688672,
      "componentType": 5125,
      "count": 6528,
      "type": "SCALAR"
    },
    {
      "bufferView": 2,
      "byteOffset": 2673768,
      "componentType": 5126,
      "count": 258,
      "max": [
        82.11927032470703,
        377.9198913574219,
        27.179269790649414
      ],
      "min": [
        76.48635864257813,
        365.6628112792969,
        21.345449447631836
      ],
      "type": "VEC3"
    },
    {
      "bufferView": 2,
      "byteOffset": 2676864,
      "componentType": 5126,
      "count": 258,
      "max": [
        0.9999966025352478,
        0.9999939799308777,
        0.9999991059303284
      ],
      "min": [
        -0.9999966025352478,
        -0.9999977946281433,
        -0.9999991059303284
      ],
      "type": "VEC3"
    },
    {
      "bufferView": 1,
      "byteOffset": 1284200,
      "componentType": 5126,
      "count": 258,
      "max": [
        0.9990003705024719,
        0.4990001916885376
      ],
      "min": [
        0.7529401779174805,
        0.2589884102344513
      ],
      "type": "VEC2"
    },
    {
      "bufferView": 0,
      "byteOffset": 714784,
      "componentType": 5125,
      "count": 288,
      "type": "SCALAR"
    }
  ],
  "asset": {
    "extras": {
      "author": "Pasha (https://sketchfab.com/Pasha.)",
      "license": "SKETCHFAB Standard (https://sketchfab.com/licenses)",
      "source": "https://sketchfab.com/3d-models/abandoned-classroom-1ee5639dc207421c9f428ac6b380f263",
      "title": "Abandoned classroom"
    },
    "generator": "Sketchfab-16.74.0",
    "version": "2.0"
  },
  "bufferViews": [
    {
      "buffer": 0,
      "byteLength": 715936,
      "name": "floatBufferViews",
      "target": 34963
    },
    {
      "buffer": 0,
      "byteLength": 1286264,
      "byteOffset": 715936,
      "byteStride": 8,
      "name": "floatBufferViews",
      "target": 34962
    },
    {
      "buffer": 0,
      "byteLength": 2679960,
      "byteOffset": 2002200,
      "byteStride": 12,
      "name": "floatBufferViews",
      "target": 34962
    }
  ],
  "buffers": [
    {
      "byteLength": 4682160,
      "uri": "scene.bin"
    }
  ],
  "extensionsUsed": [
    "KHR_materials_specular"
  ],
  "images": [
    {
      "uri": "textures/auto_1_baseColor.png"
    },
    {
      "uri": "textures/auto_1_specularf0.png"
    },
    {
      "uri": "textures/material_1_baseColor.png"
    },
    {
      "uri": "textures/auto_baseColor.png"
    },
    {
      "uri": "textures/auto_2_baseColor.png"
    },
    {
      "uri": "textures/auto_3_baseColor.png"
    },
    {
      "uri": "textures/auto_4_baseColor.png"
    },
    {
      "uri": "textures/auto_6_baseColor.png"
    },
    {
      "uri": "textures/auto_8_baseColor.png"
    },
    {
      "uri": "textures/auto_9_baseColor.png"
    },
    {
      "uri": "textures/auto_10_baseColor.png"
    }
  ],
  "materials": [
    {
      "alphaMode": "BLEND",
      "extensions": {
        "KHR_materials_specular": {
          "specularColorFactor": [
            1.0,
            1.0,
            1.0
          ],
          "specularFactor": 1.0,
          "specularTexture": {
            "index": 1
          }
        }
      },
      "name": "auto_1",
      "pbrMetallicRoughness": {
        "baseColorTexture": {
          "index": 0
        },
        "metallicFactor": 0.0,
        "roughnessFactor": 0.6
      }
    },
    {
      "name": "material_1",
      "pbrMetallicRoughness": {
        "baseColorTexture": {
          "index": 2
        },
        "metallicFactor": 0.0,
        "roughnessFactor": 0.6
      }
    },
    {
      "alphaMode": "BLEND",
      "name": "edge_color646464255",
      "pbrMetallicRoughness": {
        "baseColorFactor": [
          1.0,
          1.0,
          1.0,
          0.0
        ],
        "metallicFactor": 0.0,
        "roughnessFactor": 0.6
      }
    },
    {
      "extensions": {
        "KHR_materials_specular": {
          "specularColorFactor": [
            1.0,
            1.0,
            1.0
          ],
          "specularFactor": 1.0,
          "specularTexture": {
            "index": 1
          }
        }
      },
      "name": "auto",
      "pbrMetallicRoughness": {
        "baseColorTexture": {
          "index": 3
        },
        "metallicFactor": 0.0,
        "roughnessFactor": 0.6
      }
    },
    {
      "name": "auto_2",
      "pbrMetallicRoughness": {
        "baseColorTexture": {
          "index": 4
        },
        "metallicFactor": 0.0,
        "roughnessFactor": 0.6
      }
    },
    {
      "name": "auto_3",
      "pbrMetallicRoughness": {
        "baseColorTexture": {
          "index": 5
        },
        "metallicFactor": 0.0,
        "roughnessFactor": 0.6
      }
    },
    {
      "alphaMode": "BLEND",
      "name": "auto_4",
      "pbrMetallicRoughness": {
        "baseColorTexture": {
          "index": 6
        },
        "metallicFactor": 0.0,
        "roughnessFactor": 0.6
      }
    },
    {
      "name": "auto_6",
      "pbrMetallicRoughness": {
        "baseColorTexture": {
          "index": 7
        },
        "metallicFactor": 0.0,
        "roughnessFactor": 0.6
      }
    },
    {
      "name": "auto_8",
      "pbrMetallicRoughness": {
        "baseColorTexture": {
          "index": 8
        },
        "metallicFactor": 0.0,
        "roughnessFactor": 0.6
      }
    },
    {
      "name": "auto_9",
      "pbrMetallicRoughness": {
        "baseColorTexture": {
          "index": 9
        },
        "metallicFactor": 0.0,
        "roughnessFactor": 0.6
      }
    },
    {
      "extensions": {
        "KHR_materials_specular": {
          "specularColorFactor": [
            1.0,
            1.0,
            1.0
          ],
          "specularFactor": 1.0,
          "specularTexture": {
            "index": 1
          }
        }
      },
      "name": "auto_10",
      "pbrMetallicRoughness": {
        "baseColorTexture": {
          "index": 10
        },
        "metallicFactor": 0.0,
        "roughnessFactor": 0.6
      }
    }
  ],
  "meshes": [
    {
      "name": "Material3",
      "primitives": [
        {
          "attributes": {
            "NORMAL": 1,
            "POSITION": 0,
            "TEXCOORD_0": 2,
            "TEXCOORD_1": 3
          },
          "indices": 4,
          "material": 0,
          "mode": 4
        }
      ]
    },
    {
      "name": "Material2",
      "primitives": [
        {
          "attributes": {
            "NORMAL": 6,
            "POSITION": 5,
            "TEXCOORD_0": 7,
            "TEXCOORD_1": 8
          },
          "indices": 9,
          "material": 1,
          "mode": 4
        }
      ]
    },
    {
      "name": "Material4",
      "primitives": [
        {
          "attributes": {
            "POSITION": 10
          },
          "indices": 11,
          "material": 2,
          "mode": 1
        }
      ]
    },
    {
      "name": "Material2",
      "primitives": [
        {
          "attributes": {
            "POSITION": 12
          },
          "indices": 13,
          "material": 2,
          "mode": 1
        }
      ]
    },
    {
      "name": "Material2",
      "primitives": [
        {
          "attributes": {
            "NORMAL": 15,
            "POSITION": 14,
            "TEXCOORD_0": 16
          },
          "indices": 17,
          "material": 3,
          "mode": 4
        }
      ]
    },
    {
      "name": "Material3",
      "primitives": [
        {
          "attributes": {
            "NORMAL": 19,
            "POSITION": 18,
            "TEXCOORD_0": 20
          },
          "indices": 21,
          "material": 4,
          "mode": 4
        }
      ]
    },
    {
      "name": "Material3",
      "primitives": [
        {
          "attributes": {
            "NORMAL": 23,
            "POSITION": 22,
            "TEXCOORD_0": 24
          },
          "indices": 25,
          "material": 5,
          "mode": 4
        }
      ]
    },
    {
      "name": "Material3",
      "primitives": [
        {
          "attributes": {
            "NORMAL": 27,
            "POSITION": 26,
            "TEXCOORD_0": 28,
            "TEXCOORD_1": 29
          },
          "indices": 30,
          "material": 6,
          "mode": 4
        }
      ]
    },
    {
      "name": "Material3",
      "primitives": [
        {
          "attributes": {
            "NORMAL": 32,
            "POSITION": 31,
            "TEXCOORD_0": 33
          },
          "indices": 34,
          "material": 7,
          "mode": 4
        }
      ]
    },
    {
      "name": "Material3",
      "primitives": [
        {
          "attributes": {
            "NORMAL": 36,
            "POSITION": 35,
            "TEXCOORD_0": 37
          },
          "indices": 38,
          "material": 8,
          "mode": 4
        }
      ]
    },
    {
      "name": "Material3",
      "primitives": [
        {
          "attributes": {
            "NORMAL": 40,
            "POSITION": 39,
            "TEXCOORD_0": 41
          },
          "indices": 42,
          "material": 9,
          "mode": 4
        }
      ]
    },
    {
      "name": "Material3",
      "primitives": [
        {
          "attributes": {
            "NORMAL": 44,
            "POSITION": 43,
            "TEXCOORD_0": 45
          },
          "indices": 46,
          "material": 10,
          "mode": 4
        }
      ]
    }
  ],
  "nodes": [
    {
      "children": [
        1
      ],
      "matrix": [
        1.0,
        0.0,
        0.0,
        0.0,
        0.0,
        2.220446049250313e-16,
        -1.0,
        0.0,
        0.0,
        1.0,
        2.220446049250313e-16,
        0.0,
        0.0,
        0.0,
        0.0,
        1.0
      ],
      "name": "Sketchfab_model"
    },
    {
      "children": [
        2,
        3,
        4,
        5,
        6,
        7,
        8,
        9,
        10,
        11,
        12,
        13,
        14
      ],
      "name": "Collada visual scene group"
    },
    {
      "mesh": 0,
      "name": "Material3"
    },
    {
      "mesh": 1,
      "name": "Material2"
    },
    {
      "mesh": 2,
      "name": "Material4"
    },
    {
      "mesh": 3,
      "name": "Material2"
    },
    {
      "mesh": 4,
      "name": "Material2"
    },
    {
      "mesh": 5,
      "name": "Material3"
    },
    {
      "mesh": 6,
      "name": "Material3"
    },
    {
      "mesh": 7,
      "name": "Material3"
    },
    {
      "mesh": 8,
      "name": "Material3"
    },
    {
      "mesh": 9,
      "name": "Material3"
    },
    {
      "mesh": 10,
      "name": "Material3"
    },
    {
      "mesh": 11,
      "name": "Material3"
    },
    {
      "children": [
        15
      ],
      "name": "SketchUp"
    },
    {
      "children": [
        16
      ],
      "matrix": [
        0.9999611,
        0.008819056,
        -3.686287e-18,
        0.0,
        -0.001228572,
        0.1393034,
        0.990249,
        0.0,
        0.008733061,
        -0.9902105,
        0.1393088,
        0.0,
        115.6875,
        -178.2119,
        85.38481,
        1.0
      ],
      "name": "skp_camera_Last_Saved_SketchUp_View"
    },
    {
      "name": "ID1"
    }
  ],
  "samplers": [
    {
      "magFilter": 9729,
      "minFilter": 9987,
      "wrapS": 10497,
      "wrapT": 10497
    }
  ],
  "scene": 0,
  "scenes": [
    {
      "name": "Sketchfab_Scene",
      "nodes": [
        0
      ]
    }
  ],
  "textures": [
    {
      "sampler": 0,
      "source": 0
    },
    {
      "sampler": 0,
      "source": 1
    },
    {
      "sampler": 0,
      "source": 2
    },
    {
      "sampler": 0,
      "source": 3
    },
    {
      "sampler": 0,
      "source": 4
    },
    {
      "sampler": 0,
      "source": 5
    },
    {
      "sampler": 0,
      "source": 6
    },
    {
      "sampler": 0,
      "source": 7
    },
    {
      "sampler": 0,
      "source": 8
    },
    {
      "sampler": 0,
      "source": 9
    },
    {
      "sampler": 0,
      "source": 10
    }
  ]
}
